<?xml version="1.0" standalone="no"?>
<!DOCTYPE svg PUBLIC "-//W3C//DTD SVG 20010904//EN"
 "http://www.w3.org/TR/2001/REC-SVG-20010904/DTD/svg10.dtd">
<svg version="1.0" xmlns="http://www.w3.org/2000/svg"
 width="512.000000pt" height="512.000000pt" viewBox="0 0 512.000000 512.000000"
 preserveAspectRatio="xMidYMid meet">
<metadata>
Created by potrace 1.14, written by Peter Selinger 2001-2017
</metadata>
<g transform="translate(0.000000,512.000000) scale(0.100000,-0.100000)"
fill="#000000" stroke="none">
<path d="M2379 5116 c-2 -2 -35 -6 -74 -10 -38 -3 -97 -10 -130 -16 -33 -6
-76 -13 -95 -16 -71 -11 -306 -76 -399 -110 -600 -223 -1091 -654 -1387 -1219
-133 -254 -215 -497 -259 -770 -2 -11 -6 -36 -9 -55 -22 -131 -29 -545 -11
-650 3 -19 13 -78 21 -130 132 -806 652 -1506 1393 -1875 218 -109 507 -201
720 -231 20 -3 79 -11 131 -18 89 -12 496 -14 560 -2 14 2 45 7 70 10 534 77
1032 317 1409 680 232 222 394 443 539 731 103 206 197 502 228 715 2 19 6 44
9 55 19 95 27 458 13 605 -60 601 -331 1162 -764 1582 -131 127 -281 245 -434
342 -246 155 -608 296 -875 341 -16 3 -39 7 -51 9 -12 2 -45 7 -74 11 -29 4
-62 9 -74 12 -23 5 -452 14 -457 9z m346 -200 c104 -6 127 -9 200 -21 17 -3
46 -8 65 -11 49 -8 243 -59 315 -82 254 -83 568 -256 756 -418 266 -229 446
-453 595 -738 59 -114 109 -230 139 -321 38 -119 55 -178 70 -249 9 -44 17
-82 19 -85 2 -3 7 -33 10 -66 4 -33 9 -69 11 -80 29 -136 17 -529 -20 -705 -3
-14 -8 -38 -10 -55 -30 -171 -118 -416 -220 -612 -305 -586 -836 -1015 -1475
-1192 -112 -31 -256 -59 -341 -66 -40 -4 -85 -9 -99 -11 -36 -6 -307 -6 -360
0 -25 3 -72 8 -105 12 -33 4 -69 8 -80 10 -30 3 -83 13 -155 30 -36 9 -73 17
-82 19 -36 8 -209 66 -284 95 -117 47 -307 148 -430 230 -60 40 -111 76 -114
79 -3 3 -27 24 -55 46 -171 135 -355 338 -489 540 -169 253 -307 599 -352 880
-3 22 -8 47 -9 55 -2 8 -6 44 -10 80 -3 36 -8 81 -11 100 -6 47 -6 300 1 375
57 646 372 1238 875 1644 209 169 469 313 716 397 128 43 315 89 414 100 30 4
58 8 61 10 3 2 60 6 125 10 65 4 120 7 121 8 2 2 85 -2 208 -8z"/>
<path d="M3758 3597 c-24 -23 -72 -76 -108 -116 -36 -41 -69 -79 -75 -85 -5
-6 -39 -45 -75 -86 -36 -41 -68 -77 -71 -80 -3 -3 -65 -72 -139 -155 -150
-169 -260 -293 -275 -309 -6 -6 -39 -45 -75 -86 -36 -41 -76 -86 -90 -100 -14
-14 -38 -41 -54 -60 -16 -19 -49 -58 -75 -86 -25 -28 -69 -77 -98 -110 -28
-32 -62 -71 -75 -85 -12 -14 -41 -46 -63 -71 -22 -24 -70 -78 -107 -119 -36
-41 -79 -89 -96 -108 l-29 -34 -454 363 c-250 200 -460 367 -467 373 -6 5 -30
10 -52 11 -55 1 -94 -37 -94 -93 0 -21 6 -47 14 -57 25 -30 1009 -814 1033
-822 12 -5 28 -7 35 -6 6 1 18 2 25 3 21 2 55 37 266 276 112 127 220 248 240
270 20 22 106 119 191 215 85 96 159 180 165 186 5 6 167 188 360 405 192 217
360 405 373 419 13 14 31 40 38 58 29 66 -17 132 -91 132 -28 0 -43 -9 -77
-43z"/>
</g>
</svg>
